<?xml version="1.0" encoding="UTF-8"?>
<svg id="Layer_2" data-name="Layer 2" xmlns="http://www.w3.org/2000/svg" viewBox="0 0 573.05 149.31">
  <defs>
    <style>
      .cls-1 {
        fill: #e9e9e9;
      }
    </style>
  </defs>
  <g id="Layer_1-2" data-name="Layer 1">
    <g id="Layer_2-2" data-name="Layer 2">
      <g id="Layer_5" data-name="Layer 5">
        <path class="cls-1" d="M260.13,123.99h-10.88c-2.14,0-3.87-1.73-3.87-3.87h0v-19.07c0-2.14,1.73-3.87,3.87-3.87h9.02c2.14,0,3.87-1.73,3.87-3.87h0v-17.58c0-2.14-1.73-3.87-3.87-3.87h-9.02c-2.14,0-3.87-1.73-3.87-3.87h0v-9.02c0-2.14-1.73-3.87-3.87-3.87h-17.58c-2.14,0-3.87,1.73-3.87,3.87h0v9.02c0,2.14-1.73,3.87-3.87,3.87h-12c-2.14,0-3.87-1.73-3.87-3.87h0v-19.44c0-2.14,1.73-3.87,3.87-3.87h9.02c2.14,0,3.87-1.73,3.87-3.87h0v-17.58c0-2.14-1.73-3.87-3.87-3.87h-9.02c-2.14,0-3.87-1.73-3.87-3.87h0V3.87C200.33,1.73,198.6,0,196.46,0h0s-17.58,0-17.58,0c-2.14,0-3.87,1.73-3.87,3.87h0v11.62c0,2.14-1.73,3.87-3.87,3.87h-3.43c-2.14,0-3.87,1.73-3.87,3.87v17.58c0,2.14,1.73,3.87,3.87,3.87h3.43c2.14,0,3.87,1.73,3.87,3.87v71.57c0,2.14-1.73,3.87-3.87,3.87h-12c-2.14,0-3.87-1.73-3.87-3.87h0V23.23c0-2.14-1.73-3.87-3.87-3.87h-17.58c-2.14,0-3.87,1.73-3.87,3.87h0v44.76c0,2.14-1.73,3.87-3.87,3.87h-9.39c-2.14,0-3.87-1.73-3.87-3.87h0V23.23c0-2.14-1.73-3.87-3.87-3.87h-17.58c-2.14,0-3.87,1.73-3.87,3.87v44.76c0,2.14-1.73,3.87-3.87,3.87h-10.14c-2.14,0-3.87-1.73-3.87-3.87V23.23c0-2.14-1.73-3.87-3.87-3.87H3.87C1.73,19.36,0,21.09,0,23.23v66.73c0,2.14,1.73,3.87,3.87,3.87h17.58c2.14,0,3.87-1.73,3.87-3.87v-41.41c0-2.14,1.73-3.87,3.87-3.87h11.25c2.14,0,3.87,1.73,3.87,3.87v96.89c0,2.14,1.73,3.87,3.87,3.87h17.58c2.14,0,3.87-1.73,3.87-3.87h0v-44.39c0-2.14,1.73-3.87,3.87-3.87h10.14c2.14,0,3.87,1.73,3.87,3.87h0v44.39c0,2.14,1.73,3.87,3.87,3.87h17.58c2.14,0,3.87-1.73,3.87-3.87h0v-44.39c0-2.14,1.73-3.87,3.87-3.87h9.39c2.14,0,3.87,1.73,3.87,3.87v44.39c0,2.14,1.73,3.87,3.87,3.87h62.64c2.14,0,3.87-1.73,3.87-3.87h0v-44.39c0-2.14,1.73-3.87,3.87-3.87h12c2.14,0,3.87,1.73,3.87,3.87h0v44.39c0,2.14,1.73,3.87,3.87,3.87h36.2c2.14,0,3.87-1.73,3.87-3.87h0v-17.58c0-2.14-1.73-3.87-3.87-3.87h0Z"/>
      </g>
    </g>
    <g>
      <g>
        <path class="cls-1" d="M331.64,85.16h-4.03v13.3h-6.34v-33.17h9.89c8.77,0,13.15,3.25,13.15,9.74,0,2.21-.54,4.03-1.63,5.47-1.09,1.44-2.78,2.61-5.09,3.5l8.69,14.45h-7.3l-7.34-13.3ZM327.61,80.6h3.94c2.02,0,3.54-.44,4.58-1.32,1.04-.88,1.56-2.3,1.56-4.25,0-1.79-.54-3.1-1.61-3.91-1.07-.82-2.76-1.22-5.06-1.22h-3.41v10.7Z"/>
        <path class="cls-1" d="M371.57,87.66h-15.94c.19,2.46.83,4.22,1.92,5.28,1.09,1.06,2.53,1.58,4.32,1.58,1.12,0,2.17-.18,3.17-.55.99-.37,2.05-.94,3.17-1.7l2.54,3.5c-2.82,2.27-5.95,3.41-9.41,3.41-3.87,0-6.86-1.18-8.95-3.55-2.1-2.37-3.14-5.6-3.14-9.7,0-2.59.45-4.92,1.34-6.98.9-2.06,2.19-3.68,3.89-4.85,1.7-1.17,3.71-1.75,6.05-1.75,3.55,0,6.3,1.13,8.26,3.38,1.95,2.26,2.93,5.4,2.93,9.43,0,.32-.05,1.15-.14,2.5ZM365.62,83.39c0-4.45-1.65-6.67-4.94-6.67-1.5,0-2.68.55-3.53,1.66-.85,1.1-1.35,2.87-1.51,5.3h9.98v-.29Z"/>
        <path class="cls-1" d="M395.48,75.37l-2.4,3.6c-2.18-1.38-4.3-2.06-6.38-2.06-1.22,0-2.16.23-2.83.7s-1.01,1.08-1.01,1.85c0,.58.14,1.06.43,1.44.29.38.81.74,1.56,1.08.75.34,1.86.71,3.34,1.13,2.75.74,4.79,1.71,6.12,2.93,1.33,1.22,1.99,2.91,1.99,5.09,0,2.53-1.02,4.5-3.07,5.93-2.05,1.42-4.59,2.14-7.63,2.14-2.08,0-3.98-.32-5.69-.96-1.71-.64-3.19-1.52-4.44-2.64l3.07-3.46c2.21,1.66,4.51,2.5,6.91,2.5,1.38,0,2.47-.27,3.29-.82.82-.54,1.22-1.3,1.22-2.26,0-.74-.15-1.32-.46-1.75-.3-.43-.85-.82-1.63-1.15s-2.01-.74-3.67-1.22c-2.59-.7-4.5-1.69-5.71-2.95-1.22-1.26-1.82-2.84-1.82-4.73,0-1.41.41-2.67,1.22-3.79.82-1.12,1.97-2,3.46-2.64,1.49-.64,3.19-.96,5.11-.96,3.42,0,6.43,1.01,9.02,3.02Z"/>
        <path class="cls-1" d="M423.17,87.66h-15.94c.19,2.46.83,4.22,1.92,5.28,1.09,1.06,2.53,1.58,4.32,1.58,1.12,0,2.17-.18,3.17-.55.99-.37,2.05-.94,3.17-1.7l2.54,3.5c-2.82,2.27-5.95,3.41-9.41,3.41-3.87,0-6.86-1.18-8.95-3.55-2.1-2.37-3.14-5.6-3.14-9.7,0-2.59.45-4.92,1.34-6.98.9-2.06,2.19-3.68,3.89-4.85,1.7-1.17,3.71-1.75,6.05-1.75,3.55,0,6.3,1.13,8.26,3.38,1.95,2.26,2.93,5.4,2.93,9.43,0,.32-.05,1.15-.14,2.5ZM417.22,83.39c0-4.45-1.65-6.67-4.94-6.67-1.5,0-2.68.55-3.53,1.66-.85,1.1-1.35,2.87-1.51,5.3h9.98v-.29Z"/>
        <path class="cls-1" d="M448.78,93.92c.3.46.79.82,1.46,1.08l-1.3,4.08c-1.44-.13-2.62-.48-3.53-1.06-.91-.58-1.61-1.46-2.09-2.64-.86,1.28-1.94,2.23-3.24,2.86-1.3.62-2.75.94-4.34.94-2.53,0-4.53-.72-6-2.16-1.47-1.44-2.21-3.33-2.21-5.66,0-2.75,1-4.86,3-6.31,2-1.46,4.86-2.18,8.57-2.18h3.17v-1.44c0-1.63-.38-2.78-1.13-3.43-.75-.66-1.96-.98-3.62-.98-1.86,0-4.1.45-6.72,1.34l-1.44-4.18c3.17-1.22,6.24-1.82,9.22-1.82,6.5,0,9.74,2.91,9.74,8.74v10.66c0,.99.15,1.72.46,2.18ZM442.28,91.6v-5.14h-2.54c-3.97,0-5.95,1.47-5.95,4.42,0,1.22.3,2.16.91,2.83.61.67,1.5,1.01,2.69,1.01,2.08,0,3.71-1.04,4.9-3.12Z"/>
        <path class="cls-1" d="M472.04,72.73l-1.06,5.95c-.77-.19-1.52-.29-2.26-.29-1.5,0-2.69.54-3.55,1.61-.86,1.07-1.55,2.71-2.06,4.92v13.54h-6.14v-25.39h5.33l.58,4.99c.61-1.82,1.49-3.22,2.64-4.2,1.15-.98,2.48-1.46,3.98-1.46.93,0,1.78.11,2.54.34Z"/>
        <path class="cls-1" d="M490.35,73.07c1.33.48,2.58,1.23,3.77,2.26l-2.74,3.7c-.86-.64-1.7-1.1-2.5-1.39-.8-.29-1.68-.43-2.64-.43-3.81,0-5.71,2.9-5.71,8.69,0,2.95.5,5.06,1.49,6.36.99,1.3,2.4,1.94,4.22,1.94.9,0,1.72-.14,2.47-.43.75-.29,1.64-.75,2.66-1.39l2.74,3.89c-2.4,1.95-5.14,2.93-8.21,2.93-2.43,0-4.54-.54-6.34-1.61-1.79-1.07-3.17-2.6-4.13-4.58-.96-1.98-1.44-4.32-1.44-7.01s.48-5.06,1.44-7.13c.96-2.06,2.34-3.66,4.13-4.8,1.79-1.14,3.89-1.7,6.29-1.7,1.66,0,3.16.24,4.49.72Z"/>
        <path class="cls-1" d="M518.6,74.41c1.28,1.38,1.92,3.26,1.92,5.66v18.38h-6.14v-17.42c0-1.5-.26-2.56-.79-3.17-.53-.61-1.3-.91-2.33-.91s-1.97.33-2.83.98c-.86.66-1.7,1.59-2.5,2.81v17.71h-6.14v-35.52l6.14-.62v13.78c2.05-2.5,4.51-3.74,7.39-3.74,2.24,0,4,.69,5.28,2.06Z"/>
        <path class="cls-1" d="M327.61,113.29v33.17h-6.34v-33.17h6.34Z"/>
        <path class="cls-1" d="M355.23,122.39c1.26,1.36,1.9,3.26,1.9,5.69v18.38h-6.14v-17.42c0-1.5-.26-2.56-.79-3.17-.53-.61-1.3-.91-2.33-.91s-2.01.33-2.86.98-1.67,1.61-2.47,2.86v17.66h-6.14v-25.39h5.33l.48,3.31c2.08-2.69,4.66-4.03,7.73-4.03,2.27,0,4.04.68,5.3,2.04Z"/>
        <path class="cls-1" d="M382.52,123.37l-2.4,3.6c-2.18-1.38-4.3-2.06-6.38-2.06-1.22,0-2.16.23-2.83.7-.67.46-1.01,1.08-1.01,1.85,0,.58.14,1.06.43,1.44.29.38.81.74,1.56,1.08s1.86.71,3.34,1.13c2.75.74,4.79,1.71,6.12,2.93s1.99,2.91,1.99,5.09c0,2.53-1.02,4.5-3.07,5.93-2.05,1.42-4.59,2.14-7.63,2.14-2.08,0-3.98-.32-5.69-.96-1.71-.64-3.19-1.52-4.44-2.64l3.07-3.46c2.21,1.66,4.51,2.5,6.91,2.5,1.38,0,2.47-.27,3.29-.82.82-.54,1.22-1.3,1.22-2.26,0-.74-.15-1.32-.46-1.75-.3-.43-.85-.82-1.63-1.15s-2.01-.74-3.67-1.22c-2.59-.7-4.5-1.69-5.71-2.95-1.22-1.26-1.82-2.84-1.82-4.73,0-1.41.41-2.67,1.22-3.79.82-1.12,1.97-2,3.46-2.64,1.49-.64,3.19-.96,5.11-.96,3.42,0,6.43,1.01,9.02,3.02Z"/>
        <path class="cls-1" d="M404.07,145.26c-.9.64-1.9,1.12-3,1.44-1.1.32-2.23.48-3.38.48-2.5-.03-4.39-.74-5.69-2.14s-1.94-3.45-1.94-6.17v-13.39h-3.98v-4.42h3.98v-5.62l6.14-.72v6.34h5.9l-.62,4.42h-5.28v13.25c0,1.25.22,2.14.65,2.69.43.54,1.11.82,2.04.82s1.94-.3,3.02-.91l2.16,3.94Z"/>
        <path class="cls-1" d="M414.56,109.28c.72.72,1.08,1.61,1.08,2.66s-.36,1.94-1.08,2.64c-.72.7-1.66,1.06-2.81,1.06s-2.04-.35-2.76-1.06c-.72-.7-1.08-1.58-1.08-2.64s.36-1.94,1.08-2.66c.72-.72,1.64-1.08,2.76-1.08s2.09.36,2.81,1.08ZM414.87,121.07v25.39h-6.14v-25.39h6.14Z"/>
        <path class="cls-1" d="M438,145.26c-.9.64-1.9,1.12-3,1.44-1.1.32-2.23.48-3.38.48-2.5-.03-4.39-.74-5.69-2.14s-1.94-3.45-1.94-6.17v-13.39h-3.98v-4.42h3.98v-5.62l6.14-.72v6.34h5.9l-.62,4.42h-5.28v13.25c0,1.25.22,2.14.65,2.69.43.54,1.11.82,2.04.82s1.94-.3,3.02-.91l2.16,3.94Z"/>
        <path class="cls-1" d="M462.96,146.46h-5.33l-.34-3.55c-.93,1.44-2.02,2.51-3.29,3.22-1.26.7-2.76,1.06-4.49,1.06-2.27,0-4.02-.7-5.26-2.09-1.23-1.39-1.85-3.32-1.85-5.78v-18.24h6.14v17.47c0,1.44.25,2.46.74,3.07s1.29.91,2.38.91c1.95,0,3.66-1.2,5.14-3.6v-17.86h6.14v25.39Z"/>
        <path class="cls-1" d="M486.1,145.26c-.9.64-1.9,1.12-3,1.44-1.1.32-2.23.48-3.38.48-2.5-.03-4.39-.74-5.69-2.14s-1.94-3.45-1.94-6.17v-13.39h-3.98v-4.42h3.98v-5.62l6.14-.72v6.34h5.9l-.62,4.42h-5.28v13.25c0,1.25.22,2.14.65,2.69.43.54,1.11.82,2.04.82s1.94-.3,3.02-.91l2.16,3.94Z"/>
        <path class="cls-1" d="M510.63,135.66h-15.94c.19,2.46.83,4.22,1.92,5.28,1.09,1.06,2.53,1.58,4.32,1.58,1.12,0,2.17-.18,3.17-.55.99-.37,2.05-.94,3.17-1.7l2.54,3.5c-2.82,2.27-5.95,3.41-9.41,3.41-3.87,0-6.86-1.18-8.95-3.55-2.1-2.37-3.14-5.6-3.14-9.7,0-2.59.45-4.92,1.34-6.98.9-2.06,2.19-3.68,3.89-4.85,1.7-1.17,3.71-1.75,6.05-1.75,3.55,0,6.3,1.13,8.26,3.38,1.95,2.26,2.93,5.4,2.93,9.43,0,.32-.05,1.15-.14,2.5ZM504.68,131.39c0-4.45-1.65-6.67-4.94-6.67-1.5,0-2.68.55-3.53,1.66-.85,1.1-1.35,2.87-1.51,5.3h9.98v-.29Z"/>
      </g>
      <g>
        <path class="cls-1" d="M339.58,18.29l-.67,5.04h-8.64v28.13h-6.38v-28.13h-8.93v-5.04h24.62Z"/>
        <path class="cls-1" d="M362.77,40.66h-15.94c.19,2.46.83,4.22,1.92,5.28,1.09,1.06,2.53,1.58,4.32,1.58,1.12,0,2.17-.18,3.17-.55.99-.37,2.05-.94,3.17-1.7l2.54,3.5c-2.82,2.27-5.95,3.41-9.41,3.41-3.87,0-6.86-1.18-8.95-3.55-2.1-2.37-3.14-5.6-3.14-9.7,0-2.59.45-4.92,1.34-6.98.9-2.06,2.19-3.68,3.89-4.85,1.7-1.17,3.71-1.75,6.05-1.75,3.55,0,6.3,1.13,8.26,3.38s2.93,5.4,2.93,9.43c0,.32-.05,1.15-.14,2.5ZM356.81,36.39c0-4.45-1.65-6.67-4.94-6.67-1.5,0-2.68.55-3.53,1.66-.85,1.1-1.35,2.87-1.51,5.3h9.98v-.29Z"/>
        <path class="cls-1" d="M384.34,26.07c1.33.48,2.58,1.23,3.77,2.26l-2.74,3.7c-.86-.64-1.7-1.1-2.5-1.39-.8-.29-1.68-.43-2.64-.43-3.81,0-5.71,2.9-5.71,8.69,0,2.94.5,5.06,1.49,6.36.99,1.3,2.4,1.94,4.22,1.94.9,0,1.72-.14,2.47-.43.75-.29,1.64-.75,2.66-1.39l2.74,3.89c-2.4,1.95-5.14,2.93-8.21,2.93-2.43,0-4.54-.54-6.34-1.61s-3.17-2.6-4.13-4.58c-.96-1.98-1.44-4.32-1.44-7.01s.48-5.06,1.44-7.13,2.34-3.66,4.13-4.8c1.79-1.14,3.89-1.7,6.29-1.7,1.66,0,3.16.24,4.49.72Z"/>
        <path class="cls-1" d="M412.59,27.41c1.28,1.38,1.92,3.26,1.92,5.66v18.38h-6.14v-17.42c0-1.5-.26-2.56-.79-3.17s-1.3-.91-2.33-.91-1.97.33-2.83.98c-.86.66-1.7,1.59-2.5,2.81v17.71h-6.14V15.94l6.14-.62v13.78c2.05-2.5,4.51-3.74,7.39-3.74,2.24,0,4,.69,5.28,2.06Z"/>
        <path class="cls-1" d="M441.7,27.39c1.26,1.36,1.9,3.26,1.9,5.69v18.38h-6.14v-17.42c0-1.5-.26-2.56-.79-3.17s-1.3-.91-2.33-.91-2.01.33-2.86.98c-.85.66-1.67,1.61-2.47,2.86v17.66h-6.14v-25.39h5.33l.48,3.31c2.08-2.69,4.66-4.03,7.73-4.03,2.27,0,4.04.68,5.3,2.04Z"/>
        <path class="cls-1" d="M471.08,28.92c2.1,2.38,3.14,5.66,3.14,9.82,0,2.66-.48,5-1.44,7.03-.96,2.03-2.34,3.61-4.13,4.73-1.79,1.12-3.92,1.68-6.38,1.68-3.74,0-6.67-1.19-8.78-3.58-2.11-2.38-3.17-5.67-3.17-9.86,0-2.66.48-4.99,1.44-7.01s2.34-3.58,4.15-4.7c1.81-1.12,3.94-1.68,6.41-1.68,3.74,0,6.66,1.19,8.76,3.58ZM456.8,38.74c0,3.01.46,5.22,1.37,6.65s2.28,2.14,4.1,2.14,3.19-.72,4.1-2.16c.91-1.44,1.37-3.65,1.37-6.62s-.46-5.18-1.37-6.6c-.91-1.42-2.26-2.14-4.06-2.14-3.68,0-5.52,2.91-5.52,8.74Z"/>
        <path class="cls-1" d="M482.6,50.47c-1.1-1.14-1.66-2.74-1.66-4.82V15.89l6.14-.67v30.24c0,1.18.48,1.78,1.44,1.78.48,0,.96-.08,1.44-.24l1.3,4.32c-1.28.58-2.64.86-4.08.86-1.95,0-3.48-.57-4.58-1.7Z"/>
        <path class="cls-1" d="M515.43,28.92c2.1,2.38,3.14,5.66,3.14,9.82,0,2.66-.48,5-1.44,7.03-.96,2.03-2.34,3.61-4.13,4.73-1.79,1.12-3.92,1.68-6.38,1.68-3.74,0-6.67-1.19-8.78-3.58-2.11-2.38-3.17-5.67-3.17-9.86,0-2.66.48-4.99,1.44-7.01s2.34-3.58,4.15-4.7c1.81-1.12,3.94-1.68,6.41-1.68,3.74,0,6.66,1.19,8.76,3.58ZM501.15,38.74c0,3.01.46,5.22,1.37,6.65s2.28,2.14,4.1,2.14,3.19-.72,4.1-2.16c.91-1.44,1.37-3.65,1.37-6.62s-.46-5.18-1.37-6.6c-.91-1.42-2.26-2.14-4.06-2.14-3.68,0-5.52,2.91-5.52,8.74Z"/>
        <path class="cls-1" d="M547.61,27.41c-1.63.58-4.08.86-7.34.86,1.57.7,2.73,1.58,3.48,2.62.75,1.04,1.13,2.34,1.13,3.91,0,1.66-.41,3.14-1.22,4.42-.82,1.28-2,2.29-3.55,3.02-1.55.74-3.37,1.1-5.45,1.1-1.15,0-2.16-.13-3.02-.38-.7.48-1.06,1.1-1.06,1.87,0,1.18,1.02,1.78,3.07,1.78h3.89c1.86,0,3.48.3,4.87.91,1.39.61,2.47,1.46,3.24,2.57.77,1.1,1.15,2.34,1.15,3.72,0,2.56-1.09,4.55-3.26,5.98-2.18,1.42-5.31,2.14-9.41,2.14-2.94,0-5.26-.3-6.94-.91-1.68-.61-2.87-1.49-3.58-2.64-.71-1.15-1.06-2.62-1.06-4.42h5.52c0,.9.17,1.6.5,2.11.34.51.94.9,1.82,1.15.88.26,2.15.38,3.82.38,2.34,0,3.98-.29,4.94-.86.96-.58,1.44-1.41,1.44-2.5,0-.96-.37-1.7-1.1-2.23-.74-.53-1.81-.79-3.22-.79h-3.84c-2.4,0-4.21-.46-5.42-1.39-1.22-.93-1.82-2.1-1.82-3.5,0-.9.26-1.76.79-2.59.53-.83,1.25-1.54,2.18-2.11-1.54-.8-2.66-1.78-3.38-2.95-.72-1.17-1.08-2.57-1.08-4.2,0-1.82.45-3.42,1.34-4.8.9-1.38,2.14-2.44,3.72-3.19,1.58-.75,3.4-1.13,5.45-1.13,2.69.06,4.86-.14,6.5-.6,1.65-.46,3.43-1.21,5.35-2.23l1.54,4.9ZM531.08,30.84c-.79.88-1.18,2.06-1.18,3.53s.4,2.75,1.2,3.65c.8.9,1.9,1.34,3.31,1.34s2.59-.44,3.36-1.32c.77-.88,1.15-2.12,1.15-3.72,0-3.2-1.54-4.8-4.61-4.8-1.38,0-2.46.44-3.24,1.32Z"/>
        <path class="cls-1" d="M564.8,51.55c-1.02,3.14-2.58,5.58-4.66,7.32-2.08,1.74-4.93,2.76-8.54,3.05l-.62-4.46c1.66-.26,3-.62,4.01-1.08,1.01-.46,1.82-1.08,2.42-1.85.61-.77,1.17-1.79,1.68-3.07h-2.11l-8.06-25.39h6.53l5.52,21.31,5.76-21.31h6.34l-8.26,25.49Z"/>
      </g>
    </g>
  </g>
</svg>